<svg xmlns="http://www.w3.org/2000/svg" viewBox="0 0 500 360"><defs><linearGradient id="g" x1="0" x2="1"><stop stop-color="#ffe9df"/><stop offset="1" stop-color="#fff"/></linearGradient></defs><rect width="500" height="360" fill="url(#g)"/><rect width="500" height="360" rx="32" fill="#ed5b23" opacity=".10"/><path d="M95 220c45-5 90-48 118-108 15-32 43-34 60-4l33 57c12 21 28 34 57 39 35 6 59 27 59 61H93c-12-22-9-37 2-45z" fill="#fff" stroke="#273342" stroke-width="9"/><path d="M212 132c18 18 38 37 61 50" stroke="#ed5b23" stroke-width="14" stroke-linecap="round"/><path d="M253 152l-37 18M273 169l-36 18M294 186l-32 16" stroke="#273342" stroke-width="7" stroke-linecap="round"/></svg>